<svg version="1.1" id="Layer_1" xmlns="http://www.w3.org/2000/svg" xmlns:xlink="http://www.w3.org/1999/xlink" x="0px" y="0px"
	 width="100%" viewBox="0 0 896 1024" enable-background="new 0 0 896 1024" xml:space="preserve">
<path fill="#000000" opacity="1.000000" stroke="none" 
	d="
M593.238892,37.994469 
	C595.036133,44.944588 594.480469,51.673203 594.828003,58.286377 
	C595.622803,73.413055 596.117920,88.581810 595.963806,103.725624 
	C595.752014,124.535553 596.250549,145.518066 593.652954,166.073837 
	C592.189636,177.653549 593.016418,189.675858 589.094543,200.986618 
	C587.506287,205.567169 587.707397,210.492294 587.076782,215.250244 
	C586.041016,223.064850 584.096680,230.774902 582.260864,238.463486 
	C580.080872,247.593842 578.128174,256.834106 575.067078,265.677155 
	C573.295471,270.794952 572.789612,276.325745 569.967041,281.118774 
	C567.526978,285.262268 566.954407,290.173523 565.375061,294.650970 
	C562.407166,303.064636 558.388611,311.046356 555.679688,319.539551 
	C555.257141,320.864410 554.650757,322.046936 555.532776,323.292511 
	C559.607178,329.046356 563.719116,334.773651 567.941528,340.683929 
	C583.947388,329.454529 599.736816,319.129669 615.699707,309.063812 
	C629.852478,300.139404 644.183899,291.519318 658.523193,282.899536 
	C672.835876,274.295746 687.348877,266.050629 701.914734,257.915039 
	C715.313477,250.431366 729.150696,243.728973 742.837463,236.766510 
	C752.109619,232.049789 761.309448,227.147064 770.817200,222.952042 
	C777.852539,219.847885 784.836792,216.587463 791.872742,213.491318 
	C799.247131,210.246216 806.792542,207.390289 814.109131,203.998642 
	C818.142151,202.129120 822.398315,200.714691 826.525879,199.016312 
	C830.325684,197.452820 833.111084,198.562057 834.902405,203.192657 
	C838.690674,212.985382 836.841553,223.420013 839.143738,233.233566 
	C841.799927,244.556320 840.213440,256.416962 842.769897,267.318207 
	C847.158691,286.033203 844.804382,305.139252 848.633850,323.823364 
	C850.882751,334.795410 849.317627,346.401855 850.069519,357.722412 
	C851.050354,372.489685 853.043457,387.188202 852.991821,402.031921 
	C852.954773,412.691376 850.176331,416.564606 839.547180,417.094971 
	C827.526550,417.694733 815.921082,420.939850 804.257751,423.015686 
	C795.884705,424.505859 787.093689,426.235321 778.637451,428.142090 
	C770.185669,430.047882 761.689270,432.450897 752.977478,433.745728 
	C745.760193,434.818420 738.555969,437.258820 731.410278,439.307404 
	C729.185669,439.945221 727.016663,440.691620 724.711609,441.073975 
	C716.756836,442.393494 709.023376,444.688934 701.484619,447.420807 
	C696.791870,449.121338 691.862061,449.857391 687.131409,451.245422 
	C680.946594,453.060150 674.980042,455.559662 668.738525,457.252319 
	C661.646606,459.175568 654.393860,461.102478 647.549438,465.224854 
	C650.175171,472.921356 654.739197,479.857574 658.364197,487.214905 
	C662.817078,496.252533 667.670471,505.095398 672.452209,513.967773 
	C678.307800,524.832458 684.226807,535.663574 690.207336,546.459961 
	C692.200256,550.057617 691.569458,553.601807 687.881775,555.954285 
	C672.791748,565.580566 657.659790,575.141479 642.512939,584.678223 
	C638.952148,586.920166 637.028137,589.449097 639.787231,593.618225 
	C640.494507,594.686951 641.169678,596.123291 641.070984,597.325989 
	C639.970093,610.745667 645.436279,623.660706 644.149780,637.046814 
	C642.814270,650.942078 642.521912,665.042053 640.625916,678.730164 
	C636.995422,704.940430 634.712463,731.136353 634.039551,757.538391 
	C633.938232,761.515259 633.399780,765.517761 632.670410,769.435181 
	C630.426392,781.487549 628.625488,793.673889 625.466675,805.491272 
	C621.729248,819.473389 617.567444,833.367859 611.868164,846.777283 
	C606.444824,859.537476 600.970276,872.295837 594.485718,884.507629 
	C584.561951,903.196106 571.924316,919.843506 552.731201,930.059998 
	C542.802307,935.345154 531.981323,937.383240 520.666077,935.648315 
	C519.205994,935.424438 517.735046,935.029175 515.962646,936.077881 
	C520.500977,944.775635 522.071655,954.451233 524.911255,963.732239 
	C525.704285,966.324097 526.980164,967.508423 529.707947,967.890381 
	C543.343262,969.799988 557.049683,971.412659 570.533386,974.115845 
	C578.707214,975.754517 586.997437,977.720703 594.527649,981.718750 
	C596.938354,982.998657 598.352112,984.882507 598.183716,987.727783 
	C598.022522,990.453552 596.257019,991.720032 593.944641,992.706055 
	C580.452087,998.459229 566.015137,999.174561 551.740479,1001.066345 
	C524.749268,1004.643494 497.595154,1004.201599 470.499146,1004.969604 
	C440.688385,1005.814575 410.878815,1004.645081 381.102081,1003.205505 
	C370.489471,1002.692505 359.814056,1001.505920 349.380829,999.844604 
	C340.376617,998.410828 330.938812,997.701782 322.403961,993.430725 
	C318.834625,991.644531 315.402100,989.525146 315.647400,985.712097 
	C315.924011,981.411743 320.211395,979.401062 323.900055,977.980408 
	C342.585907,970.783325 362.187683,968.260437 381.934082,965.529053 
	C406.175323,962.175903 430.377930,961.923340 454.673218,962.169495 
	C464.481262,962.268799 474.280731,963.192627 484.085114,963.721985 
	C484.888611,963.765381 485.700104,963.661133 486.920715,963.607300 
	C485.514343,959.092712 482.259064,956.145813 479.980530,952.643616 
	C473.019318,941.943237 465.717041,931.049194 461.692291,919.214172 
	C457.434631,906.694214 446.838470,903.133301 438.139008,896.602844 
	C430.569885,890.920959 422.161621,886.518494 413.654694,882.471436 
	C406.387604,879.014038 398.830231,876.043457 391.176483,873.546509 
	C372.348846,867.404114 353.218750,862.156860 336.709747,850.469788 
	C324.636261,841.922668 314.142334,832.017029 306.204742,819.394470 
	C300.329498,810.051697 297.160645,799.925476 293.998749,789.395630 
	C289.611420,774.784546 289.955963,760.304810 292.013947,745.945251 
	C293.584412,734.987244 297.068451,724.182251 300.979034,713.574402 
	C303.979523,705.435425 307.357178,697.411743 310.180176,689.185669 
	C312.689850,681.872742 316.047272,674.794861 319.643677,667.934692 
	C321.395874,664.592163 321.960236,660.677307 324.801697,657.795837 
	C326.371613,656.203796 324.846008,654.932495 323.337616,653.854858 
	C311.060699,645.083740 299.090485,635.853088 286.505859,627.552307 
	C275.907532,620.561584 265.338593,613.409363 253.822403,607.895081 
	C251.931702,606.989807 249.898697,607.287109 247.918152,607.215881 
	C241.513031,606.985779 237.507843,603.590210 236.871964,597.381714 
	C236.580338,594.534302 235.682022,592.429382 233.295273,590.657349 
	C230.715134,588.741760 228.705276,586.225220 229.502075,582.549072 
	C229.723694,581.526611 229.524231,580.525146 228.709045,579.796692 
	C224.079147,575.658875 225.170074,571.708069 229.009842,568.148560 
	C229.273026,566.670715 228.432770,566.030273 227.819504,565.256958 
	C224.607956,561.207520 224.751602,558.631165 228.745850,555.574097 
	C230.814774,553.990540 232.488586,552.740784 232.077469,549.604614 
	C231.723740,546.906250 234.274719,546.126282 236.451874,545.725281 
	C248.785492,543.453613 259.843475,538.476624 270.381500,531.603638 
	C277.755280,526.794373 286.023865,523.112244 295.210144,522.750244 
	C297.694824,522.652283 298.619751,521.420227 298.879883,519.009460 
	C299.902740,509.530304 300.166901,499.989899 298.509583,490.650604 
	C297.343964,484.082001 294.630585,477.786163 292.577209,471.378479 
	C292.122040,469.958130 291.180420,468.608002 291.066742,467.177551 
	C290.189362,456.139923 285.715515,445.555267 286.932953,434.253632 
	C287.053925,433.130585 286.908569,431.913300 286.172791,431.357117 
	C270.610199,433.388763 255.638748,436.712311 240.368286,438.704285 
	C226.903519,440.460754 213.560333,440.823212 200.122681,441.236176 
	C190.308197,441.537842 180.500565,442.924164 170.683792,442.090240 
	C155.389816,440.791016 139.888916,442.651276 124.810509,440.559296 
	C109.718826,438.465485 94.480019,437.289429 79.431122,434.165283 
	C70.459961,432.302826 61.390499,429.931091 52.123508,428.924988 
	C46.985909,428.367218 42.067741,425.942169 36.764950,425.349518 
	C34.197556,425.062622 32.866177,422.978027 32.626171,420.370483 
	C32.414551,418.071350 32.950912,416.261780 35.086334,414.826843 
	C50.626389,404.384674 66.457733,394.550171 83.451645,386.490692 
	C93.723404,381.619263 104.096466,376.885376 114.709206,373.090057 
	C120.278976,371.098236 125.963959,368.750214 131.903595,367.268372 
	C137.317871,365.917603 143.009079,364.474854 148.405655,362.372925 
	C154.341110,360.061066 160.880920,359.374786 166.837280,356.794495 
	C177.165451,352.320374 188.729874,353.539948 199.264221,349.926239 
	C200.353760,349.552490 201.547028,349.397400 202.704391,349.317261 
	C236.067413,347.007446 269.420776,344.226288 302.909973,345.990662 
	C307.192596,346.216339 311.417389,347.521484 315.671326,348.313660 
	C322.325256,349.552734 328.102600,348.596375 333.689392,343.952454 
	C344.805298,334.712616 357.593781,328.017883 370.394531,321.342163 
	C377.430450,317.672882 384.688995,314.363831 392.080109,311.982971 
	C397.823059,310.133057 403.349823,307.515228 409.437195,306.292084 
	C416.525391,304.867798 423.467773,302.532227 430.592255,300.929718 
	C434.652496,300.016449 438.574066,298.718353 442.774597,298.888611 
	C446.636383,299.045105 450.448914,298.717163 454.158142,297.710327 
	C463.091125,295.285553 472.196472,294.757355 481.391266,294.847839 
	C487.623199,294.909180 487.723022,294.719482 487.750763,288.325653 
	C487.752930,287.825684 487.781372,287.323120 487.742493,286.826080 
	C486.134003,266.259613 489.458649,245.950043 492.288330,225.789383 
	C493.644623,216.126205 495.242645,206.191925 497.997467,196.538086 
	C500.084137,189.225754 501.382202,181.414749 503.262878,173.992676 
	C504.895630,167.549042 506.482178,160.914581 508.880951,154.588684 
	C511.093811,148.753052 512.911316,142.761368 514.742676,136.789276 
	C516.054688,132.510849 518.037659,128.484787 519.696594,124.374413 
	C522.943970,116.328629 526.301025,108.299545 530.048401,100.430275 
	C535.438293,89.111794 541.141541,77.980789 547.223145,67.033829 
	C556.991516,49.450684 568.552673,33.051109 580.325134,16.779894 
	C582.367310,13.957248 584.700989,13.385971 587.634033,14.011286 
	C590.676941,14.660005 591.213562,17.116205 591.272644,19.786779 
	C591.405029,25.764881 590.904053,31.811134 593.238892,37.994469 
M490.490753,305.986725 
	C478.826782,306.072449 467.162537,306.135712 455.499054,306.265686 
	C453.515533,306.287750 451.286499,306.065948 449.594788,306.859985 
	C440.371002,311.189362 430.050598,309.798828 420.429413,312.830048 
	C413.752777,314.933655 406.628052,316.701355 400.068512,319.012146 
	C386.928864,323.640869 374.009399,329.094635 361.861572,336.307678 
	C348.127930,344.462341 334.893005,353.167053 322.933319,363.767212 
	C319.603790,366.718231 316.879913,370.315826 313.106018,372.800201 
	C311.594940,373.795013 310.213806,375.593994 308.325684,373.955719 
	C306.369263,372.258118 307.277466,370.407471 308.643127,368.683472 
	C311.592224,364.960541 314.489838,361.196747 317.396332,357.465240 
	C315.797058,355.705261 314.018524,356.299866 312.445770,356.281006 
	C304.613708,356.186951 296.780243,356.221344 288.947571,356.167236 
	C251.734634,355.910156 214.489609,355.130493 177.906921,363.959839 
	C175.340683,364.579224 172.467438,364.207428 170.113922,365.519012 
	C164.405014,368.700531 157.876663,369.549713 151.798141,371.212585 
	C145.628464,372.900452 139.474335,374.948395 133.275650,376.603638 
	C129.237534,377.681946 124.814026,378.472046 121.132462,380.460632 
	C115.826035,383.326782 110.059952,384.815826 104.549553,387.005951 
	C100.998726,388.417267 100.687584,389.810577 103.011154,392.272461 
	C111.380524,401.140198 120.863106,408.593323 131.330765,414.884644 
	C139.838318,419.997925 148.707336,424.425415 157.652695,428.615204 
	C163.486847,431.347748 169.348160,433.820953 176.423050,434.019501 
	C192.681549,434.475891 208.535339,431.340393 224.593811,430.230621 
	C231.558716,429.749298 238.560364,430.289154 245.510620,428.929474 
	C258.668121,426.355469 271.889038,424.094482 285.113708,421.883698 
	C288.058136,421.391510 290.750488,420.540924 290.580292,417.304260 
	C290.272797,411.455933 295.474915,407.574646 295.490814,401.852203 
	C295.495850,400.048065 297.504974,398.813202 299.636627,399.127411 
	C301.457581,399.395844 301.988159,400.866974 302.068756,402.446045 
	C302.247070,405.939911 302.534729,409.480164 300.728638,412.705872 
	C298.971558,415.843994 298.795013,419.336792 298.094391,422.757507 
	C295.946808,433.243164 297.271362,443.636383 298.340607,454.049561 
	C299.104034,461.484222 301.615448,468.577362 303.834686,475.594452 
	C306.010376,482.473694 307.953949,489.408478 309.201263,496.423859 
	C310.871155,505.815704 309.564423,515.333191 308.364441,524.767395 
	C308.068970,527.090210 307.366058,529.592285 308.980377,532.406555 
	C309.706787,531.257019 310.158813,530.600769 310.551727,529.910828 
	C315.731445,520.814697 323.495941,514.500854 333.323883,511.661743 
	C344.936554,508.307037 354.805176,513.451660 363.289856,520.917297 
	C370.748749,527.480286 373.833344,536.430542 376.637787,545.900269 
	C379.722961,556.318115 376.477112,565.176758 373.191589,574.332764 
	C370.399719,582.112915 364.502411,587.457520 357.744141,591.983154 
	C358.236786,592.644226 358.439789,593.175964 358.821045,593.389771 
	C365.381531,597.067993 371.484589,601.643372 378.783356,603.883667 
	C381.976776,604.863831 383.244049,607.715637 385.138336,609.947449 
	C385.792297,610.717896 385.634827,611.901245 384.864410,612.711121 
	C383.919434,613.704529 382.767609,613.682617 381.694702,612.944458 
	C380.336304,612.009888 379.226318,610.652344 377.436493,610.485291 
	C369.668823,609.759949 363.083466,605.614258 356.677307,601.994446 
	C342.630188,594.057129 330.014343,583.902771 318.807220,572.267883 
	C308.870483,561.951904 299.520050,551.064758 298.791229,535.596680 
	C298.691742,533.486267 297.838348,532.158203 295.330841,532.486633 
	C288.697296,533.355347 282.131836,535.058655 276.544586,538.466370 
	C265.834412,544.998657 255.259598,551.562073 242.514771,554.060303 
	C242.687149,556.492554 242.705185,558.826050 240.515320,560.416748 
	C239.667053,561.032898 239.011642,562.097290 239.561340,563.030090 
	C241.847794,566.909790 242.624222,570.655273 239.377899,574.430115 
	C239.144653,574.701416 239.202881,575.509644 239.438599,575.854004 
	C242.095474,579.734985 239.712067,585.454468 244.183868,588.727112 
	C244.838623,589.206299 245.133270,590.558228 245.122040,591.500671 
	C245.074463,595.489197 247.447510,597.183105 250.909683,597.773743 
	C257.246857,598.854797 262.772400,601.952393 268.136780,605.123779 
	C279.246796,611.691711 289.866180,619.040527 300.418915,626.481140 
	C314.910156,636.698730 329.468658,646.818481 343.522949,657.640320 
	C345.412964,659.095642 346.940063,660.692993 345.303650,663.038879 
	C343.555298,665.545227 341.104858,666.083618 338.283081,664.608398 
	C336.694061,663.777588 335.998627,661.610291 333.545624,661.665283 
	C331.500275,663.466187 330.431763,666.089844 329.369049,668.661377 
	C326.477936,675.657288 323.072693,682.406860 320.373260,689.519287 
	C316.630005,699.381836 312.690216,709.187622 308.777954,718.979309 
	C306.374725,724.994141 306.895721,731.850281 302.819489,737.274658 
	C302.043335,738.307434 302.293304,740.166199 302.204437,741.651978 
	C301.388916,755.282654 301.028687,768.881104 301.960388,782.562317 
	C302.450745,789.762878 305.489349,795.988403 307.580414,802.474426 
	C309.722076,809.117432 313.921112,815.152466 318.156555,820.939575 
	C328.006653,834.398193 341.194244,843.601929 355.867584,850.913818 
	C362.952942,854.444519 370.597687,856.553345 378.015747,859.222961 
	C387.446930,862.617065 397.210602,865.037354 406.410828,869.346741 
	C415.952423,873.815735 425.678284,877.854614 434.625519,883.464661 
	C443.880798,889.267822 452.971954,895.332825 462.228760,901.133484 
	C469.645630,905.781128 477.148224,910.298645 484.711700,914.704102 
	C494.291870,920.284058 504.608337,924.553467 515.397156,926.467896 
	C527.250732,928.571167 538.805786,926.439270 549.854492,920.615356 
	C563.032654,913.668884 571.986328,902.859741 580.080261,891.004517 
	C586.063904,882.240112 590.049500,872.396851 594.681946,862.911499 
	C597.647034,856.840149 601.113220,850.883667 603.074768,844.483398 
	C605.770630,835.687195 608.834167,826.943359 611.926941,818.370361 
	C616.756226,804.983704 619.932922,791.109375 621.840332,777.430359 
	C623.929810,762.446289 626.903687,747.316772 626.133972,731.851990 
	C625.615479,721.435242 625.929138,710.716248 627.841736,700.501526 
	C630.599670,685.771545 631.786377,670.820923 633.412964,656.063110 
	C635.431274,637.751465 635.558960,619.058960 631.286987,600.482422 
	C628.135193,586.777039 625.083374,573.350159 618.977295,560.551208 
	C611.497986,544.873779 599.588318,533.862183 584.948303,525.406006 
	C578.864807,521.892090 572.348022,519.444458 565.539368,517.268677 
	C557.999756,514.859314 550.620544,514.678223 543.036011,513.997070 
	C530.669556,512.886536 518.825684,515.726990 507.218079,518.814636 
	C501.880676,520.234436 495.662842,521.768677 491.298706,526.347351 
	C494.021454,531.381836 496.242035,529.080750 499.120483,526.759033 
	C501.764587,524.626282 505.387024,520.609558 508.549652,524.428040 
	C511.779724,528.327881 507.359589,531.116333 504.644165,533.706543 
	C502.367371,535.878357 499.277374,537.448608 498.606598,541.158997 
	C503.517059,542.781982 506.384613,539.903625 509.334198,537.208374 
	C511.531342,535.200623 514.040161,533.343262 516.755371,535.890259 
	C519.436462,538.405212 517.788391,541.167847 516.058533,543.500183 
	C513.937378,546.360168 512.136475,549.357239 510.165588,553.474731 
	C514.249268,551.349792 517.411255,549.745911 520.532410,548.066040 
	C522.705139,546.896729 524.910645,546.107605 527.026306,547.945740 
	C528.986084,549.648376 529.002441,551.987183 528.758301,554.396973 
	C528.566467,556.290527 526.811462,557.958008 527.828613,560.025452 
	C528.269531,560.077087 528.602600,560.185425 528.910461,560.136230 
	C529.399597,560.058105 529.980408,560.007141 530.335266,559.716309 
	C536.592590,554.587097 541.810974,558.303650 547.017944,561.696960 
	C549.108765,563.059570 549.679504,565.096252 548.612793,567.372375 
	C547.787231,569.133850 546.287231,570.843506 544.329468,569.792480 
	C538.688843,566.764404 533.097229,568.222351 527.325562,569.016113 
	C523.891846,569.488403 519.529724,569.045898 519.014526,564.658691 
	C518.449646,559.847900 515.875549,560.458008 512.802246,561.012268 
	C508.725037,561.747620 504.733398,562.221802 502.330811,557.716125 
	C501.118408,555.442566 501.628021,552.913635 501.599762,550.170959 
	C495.995911,550.434448 490.929657,549.530396 487.221222,544.407471 
	C485.922180,547.175232 482.777557,548.489075 483.727692,551.291138 
	C484.716949,554.208557 487.847382,553.353088 490.238586,553.789978 
	C495.358765,554.725525 499.535645,557.478638 502.384521,561.744873 
	C510.375183,573.710938 517.770569,586.090454 526.092468,597.815979 
	C542.758240,621.298157 562.514160,641.541809 588.763672,654.510803 
	C590.037598,655.140198 591.112244,655.932739 591.019714,657.478088 
	C590.912109,659.276855 589.589050,659.975525 588.018738,660.328186 
	C586.163696,660.744873 584.141174,660.869263 582.752563,659.588989 
	C579.896362,656.955566 576.170898,655.904541 572.954468,653.966858 
	C558.195801,645.075623 544.737183,634.806152 533.670532,621.479431 
	C521.887939,607.290649 511.146729,592.399292 502.042938,576.344666 
	C498.861206,570.733643 498.564667,570.678162 493.106659,574.272156 
	C489.244293,576.815430 485.238373,576.691345 481.219849,574.806396 
	C475.762665,572.246643 471.025696,568.684509 466.745789,564.426025 
	C453.092010,550.840698 442.870605,534.821106 433.354187,518.237183 
	C431.764709,515.467285 430.799011,511.172241 426.484894,511.177338 
	C421.242706,511.183533 417.545593,507.792633 413.222595,505.835419 
	C410.780914,504.730042 410.469208,502.244232 411.513672,499.776123 
	C412.621521,497.158173 414.580139,497.037292 416.871979,498.044098 
	C419.456543,499.179504 422.023590,500.355164 424.616486,501.470917 
	C429.579651,503.606598 434.765411,503.594238 439.695251,501.903198 
	C447.828857,499.113190 454.888519,494.403900 460.447876,487.794922 
	C463.541107,484.117676 467.209076,483.448395 471.626770,484.067780 
	C477.387085,484.875458 483.227814,486.478363 488.971985,485.627869 
	C496.467041,484.518158 504.757446,486.013184 510.985352,479.699554 
	C513.491638,477.158844 515.985535,472.877502 520.460754,476.456848 
	C523.111755,478.577118 521.933655,483.467957 516.718506,486.766083 
	C508.174011,492.169708 511.795624,500.014343 510.350647,508.469208 
	C532.874573,502.630676 554.209290,502.179321 575.332092,510.329498 
	C565.832642,495.545746 565.495728,479.759399 570.566406,464.574707 
	C576.017273,448.251556 589.496216,440.196625 606.527466,438.382538 
	C606.295471,437.258850 606.356995,436.645813 606.079773,436.346283 
	C597.282349,426.840393 591.770325,415.545013 586.720276,403.696198 
	C581.953613,392.512329 577.431702,381.221283 573.014832,369.920837 
	C567.068115,354.706085 558.029907,341.570404 547.942688,329.047119 
	C544.660278,324.971863 543.642517,320.985382 546.376221,316.777161 
	C549.317322,312.249603 550.280029,306.996338 552.502991,302.216095 
	C554.064819,298.857605 555.637024,295.319641 556.764771,291.670837 
	C558.658264,285.544281 561.034363,279.567047 562.934692,273.442352 
	C564.744934,267.607910 567.474182,261.773010 568.225525,255.972702 
	C569.293701,247.727356 572.235352,240.013687 573.723816,231.922104 
	C575.437988,222.603821 578.090698,213.135300 579.333862,203.826721 
	C581.235535,189.588516 585.406006,175.487854 584.105652,160.864792 
	C583.989624,159.560608 584.547241,158.196808 584.432983,156.892120 
	C583.866272,150.418121 587.150879,143.991562 585.171509,137.614807 
	C579.023560,117.808228 567.654358,101.274490 552.572327,87.215736 
	C549.412720,84.270508 547.008362,85.112953 545.203613,89.678345 
	C542.539062,96.418861 539.115784,102.815132 536.179077,109.431702 
	C530.606812,121.986290 525.721619,134.740677 521.236267,147.706848 
	C519.662476,152.256378 518.784485,156.997894 517.056091,161.413635 
	C513.910034,169.451584 512.475891,177.921112 509.964722,186.098175 
	C507.708008,193.446640 508.147583,201.571487 505.292480,208.389893 
	C500.903778,218.870850 501.508820,229.990845 499.977325,240.590210 
	C497.571167,257.242798 497.005035,274.390076 497.430511,291.405853 
	C497.538025,295.703918 498.838013,298.415771 503.374359,299.092621 
	C505.411957,299.396667 507.513580,300.265350 507.361328,302.768402 
	C507.210449,305.248474 504.993866,305.919891 502.974884,306.001373 
	C499.151825,306.155670 495.315918,305.990875 490.490753,305.986725 
M822.479492,210.099365 
	C819.729431,211.609909 817.045471,213.111542 814.021179,214.216049 
	C806.617920,216.919815 799.434631,220.242691 792.226318,223.458817 
	C785.294067,226.551788 778.452881,229.848480 771.550476,233.009323 
	C765.258484,235.890656 758.833801,238.502228 752.654968,241.605774 
	C743.511353,246.198441 734.518860,251.093658 725.488281,255.909409 
	C712.544189,262.812103 699.532593,269.595886 686.722473,276.739960 
	C676.763123,282.294220 667.042908,288.280548 657.261353,294.149780 
	C647.326233,300.111145 637.349548,306.011902 627.565796,312.214722 
	C614.564514,320.457367 601.616028,328.795410 588.881775,337.441467 
	C583.350708,341.196838 577.138367,344.154846 572.853821,348.805573 
	C574.686096,354.848206 578.460571,359.061401 580.537415,364.365662 
	C583.360840,371.576996 585.555786,379.054077 588.812256,386.061554 
	C592.208374,393.369781 595.025024,400.915314 598.552124,408.188019 
	C602.337036,415.992462 606.138977,423.555786 612.166809,429.873810 
	C621.307983,439.455200 628.047546,450.641235 629.467957,463.799011 
	C630.994324,477.938385 631.423096,492.176453 627.001892,506.271332 
	C624.441223,514.434937 622.873535,522.935059 618.539734,530.403564 
	C615.206177,536.148315 615.995850,540.446472 620.332275,545.585754 
	C626.880615,553.346558 630.414368,563.012390 633.912354,572.465820 
	C635.577209,576.965088 637.186157,577.982239 641.263062,575.323120 
	C646.796387,571.714050 652.333679,568.110596 657.892517,564.541016 
	C663.883789,560.693665 670.021729,557.059204 675.848816,552.979248 
	C678.144836,551.371704 682.111755,549.886353 679.595825,545.653748 
	C676.636658,540.675659 673.969788,535.552856 671.280396,530.426208 
	C660.462891,509.805603 649.429749,489.298279 638.502563,468.735138 
	C635.283264,462.676941 636.762268,459.273224 642.869446,456.476959 
	C646.813721,454.671051 651.003418,453.678070 654.912048,452.109924 
	C664.738586,448.167633 675.072449,445.885040 684.950928,442.122894 
	C689.323792,440.457550 694.021667,438.634247 698.715393,438.156067 
	C705.865601,437.427612 712.362854,434.404480 719.278748,432.894348 
	C729.163391,430.736084 738.842224,427.314362 748.963501,425.809875 
	C749.940430,425.664673 750.932007,425.397858 751.833435,424.999207 
	C760.272644,421.267151 769.456116,420.570099 778.334351,418.814362 
	C786.891846,417.122070 795.835449,415.978516 804.005493,413.742218 
	C814.009216,411.003998 824.395264,411.304535 834.209473,407.820374 
	C841.619934,405.189545 841.900330,405.979858 841.877869,397.990448 
	C841.876892,397.657196 841.871582,397.323547 841.884644,396.990753 
	C842.905579,371.000214 840.773560,345.145142 838.587219,319.289825 
	C838.026550,312.660400 838.196289,305.923615 837.093201,299.394470 
	C834.156860,282.014313 834.049500,264.363098 831.433350,246.905029 
	C829.773743,235.830215 828.225281,224.575562 827.137146,213.343689 
	C826.901794,210.913742 826.274902,208.965668 822.479492,210.099365 
M622.629089,481.339233 
	C623.381104,472.178864 619.874084,463.746124 617.992126,455.050537 
	C617.530029,452.915466 616.268799,449.889923 614.014648,449.688080 
	C607.330994,449.089569 600.482422,447.737823 593.985657,450.958099 
	C585.952515,454.939880 581.794373,461.652985 578.342590,469.824036 
	C573.319946,481.713623 576.059326,492.114197 581.555542,502.529938 
	C586.464783,511.833496 595.481934,515.469971 604.752991,518.354126 
	C610.171692,520.039795 613.910828,517.672668 615.754639,512.104675 
	C618.977783,502.370758 621.197571,492.393188 622.629089,481.339233 
M364.078400,537.340942 
	C357.595795,519.887329 335.985809,517.099670 324.878296,526.250183 
	C320.021759,530.251099 318.151428,535.845032 315.778717,541.364685 
	C312.817810,548.252686 314.094666,553.824402 318.776245,559.280334 
	C326.496002,568.277039 335.442047,575.916382 344.664520,583.265930 
	C347.632629,585.631226 351.052368,585.448853 354.043610,583.633179 
	C361.048492,579.381348 366.182190,572.630981 367.248688,565.113037 
	C368.505646,556.252441 370.165741,546.515076 364.078400,537.340942 
M489.772400,565.425659 
	C491.384094,564.277344 490.473511,563.612122 489.332184,562.910278 
	C486.998657,561.475281 484.361115,561.097839 481.749237,560.553772 
	C474.031891,558.946411 471.220673,552.039551 475.693024,545.751343 
	C477.715942,542.907166 479.647491,539.979858 481.884552,537.311584 
	C483.828613,534.992737 484.350250,532.514221 483.221008,529.892151 
	C480.935089,524.584473 483.387115,521.304504 487.250000,517.939575 
	C491.154297,514.538635 496.754852,514.679138 500.858673,510.966858 
	C498.377686,510.792908 496.402222,510.638336 494.424652,510.518311 
	C478.782898,509.568726 465.075653,513.917175 453.471191,524.805176 
	C450.451385,527.638550 450.495361,529.796753 452.528931,532.903076 
	C459.384979,543.375916 467.303864,552.913147 476.433044,561.501831 
	C480.150513,564.999207 484.203400,566.429932 489.772400,565.425659 
M504.535950,934.005859 
	C503.312836,933.163330 502.164246,931.745667 500.853973,931.575867 
	C494.579681,930.763062 489.801147,926.705505 484.236298,924.459717 
	C480.135406,922.804871 477.147919,918.482483 471.454590,918.963562 
	C479.627136,933.990967 486.978149,948.876221 498.389191,961.798401 
	C501.656067,956.933472 504.915924,958.804504 508.469788,961.935181 
	C505.087952,956.709839 509.409729,955.483398 512.095703,953.783081 
	C510.771057,946.726257 507.744904,940.677490 504.535950,934.005859 
M465.945923,506.567078 
	C468.824768,504.039703 472.328278,503.387024 475.999847,502.812195 
	C483.682556,501.609253 491.221527,499.392090 499.137238,501.665100 
	C502.043701,502.499695 502.718170,500.131348 502.710724,497.675964 
	C502.703491,495.289154 501.663849,494.694061 499.257050,494.812653 
	C489.631744,495.286774 479.990387,495.562988 470.383606,494.394470 
	C468.646606,494.183167 466.856537,494.299805 465.662781,495.485291 
	C458.427490,502.670593 450.017334,508.054504 440.444458,511.800232 
	C441.014771,515.370361 442.961609,517.489075 445.005096,519.458557 
	C447.087219,519.094666 448.133362,517.776123 449.435211,516.760376 
	C454.359589,512.918091 458.712128,508.138031 465.945923,506.567078 
M606.646973,526.424744 
	C605.551514,526.623535 604.372131,525.766418 603.006653,526.933533 
	C604.070801,527.934082 605.074219,528.934814 606.140320,529.863525 
	C607.170044,530.760498 608.280334,530.667969 609.262695,529.792419 
	C609.996094,529.138794 610.804321,528.356812 610.331543,527.256165 
	C609.719543,525.831726 608.384827,526.416382 606.646973,526.424744 
z"/>
<path fill="#000000" opacity="1.000000" stroke="none" 
	d="
M455.427246,692.387939 
	C445.607544,703.885437 436.453918,715.397461 428.403931,727.838379 
	C425.049286,733.022888 422.980927,739.262878 417.651672,743.132324 
	C416.015900,744.320068 414.435059,746.140930 412.462463,744.292664 
	C410.522034,742.474731 412.355133,741.042847 413.245850,739.199951 
	C415.760010,733.997925 419.367767,729.428467 421.724152,724.233154 
	C423.007782,721.403137 425.428925,719.561279 426.582764,716.766663 
	C427.695648,714.071411 427.513245,712.797119 424.469238,710.995300 
	C414.462616,705.072510 403.804962,702.438477 392.313812,702.245178 
	C378.303864,702.009583 365.866241,706.243469 353.936768,713.556213 
	C347.010925,717.801819 341.466766,723.339355 335.514862,728.551880 
	C333.809174,730.045715 331.993896,730.973145 330.182281,729.591919 
	C328.102600,728.006287 329.154327,725.764221 330.443817,724.264648 
	C339.229401,714.047607 348.888428,705.176331 361.462402,699.328369 
	C373.338745,693.804871 385.437836,692.203674 398.202026,692.674622 
	C405.812012,692.955383 412.625122,695.663391 419.429474,698.617920 
	C422.749908,700.059814 426.084991,701.352051 429.111084,703.499878 
	C432.501678,705.906372 434.714996,703.700928 436.930847,700.926636 
	C445.746246,689.889709 454.880585,679.150085 464.774231,669.009949 
	C472.756012,660.829346 478.706787,665.121643 484.056915,673.300659 
	C489.676971,681.892395 487.624481,690.110168 484.386322,699.259399 
	C480.577667,710.020447 475.798553,720.307678 470.973480,730.513000 
	C465.498108,742.093628 459.921814,753.671814 453.625122,764.907166 
	C447.150574,776.459839 440.585175,787.936096 433.526093,799.128052 
	C426.404510,810.419189 418.117371,820.814148 407.969391,829.537476 
	C405.366547,831.774902 402.233063,835.088806 398.247375,832.852051 
	C394.350677,830.665100 391.965363,826.964111 391.725128,822.269958 
	C391.631653,820.444031 391.632874,818.593140 391.819733,816.777161 
	C392.195709,813.123291 394.558685,811.454590 397.992188,811.695679 
	C401.349579,811.931580 402.212280,814.520508 402.214081,817.428101 
	C402.215027,818.895020 401.974731,820.362122 401.748993,822.885681 
	C408.311188,818.094788 412.923859,812.522766 417.235352,806.866577 
	C427.391663,793.542603 435.830383,779.058533 443.988464,764.470154 
	C449.794037,754.088684 454.698517,743.199158 459.901093,732.485840 
	C463.783356,724.491394 467.499237,716.416077 471.606445,707.703857 
	C467.108765,709.447998 463.940643,706.090149 459.640106,706.436829 
	C455.968536,706.732727 456.449280,701.975647 457.974091,699.290955 
	C461.551514,692.992310 464.361084,686.346436 467.935577,678.815735 
	C462.897980,683.331726 459.174347,687.622131 455.427246,692.387939 
z"/>
<path fill="#000000" opacity="1.000000" stroke="none" 
	d="
M362.653198,437.867065 
	C371.447693,439.723724 377.667969,444.595703 382.425873,451.520874 
	C393.009552,466.925507 386.253479,486.617218 371.419830,495.702820 
	C356.832001,504.637787 338.720093,496.438354 333.084320,483.916290 
	C325.172760,466.337555 329.915192,452.600525 342.541016,443.432251 
	C348.201782,439.321686 354.847076,436.865631 362.653198,437.867065 
M367.501099,447.966705 
	C365.254608,445.723236 362.476654,443.911682 359.547394,445.716095 
	C356.294586,447.719696 352.533447,449.680023 352.171539,454.418579 
	C351.806427,459.199005 354.112671,462.548523 358.091614,464.371185 
	C362.680695,466.473297 368.616760,464.070587 370.932648,459.840271 
	C373.036011,455.998230 372.051056,452.086029 367.501099,447.966705 
z"/>
<path fill="#000000" opacity="1.000000" stroke="none" 
	d="
M530.940979,439.396118 
	C518.351013,431.803741 513.311707,420.890808 514.827698,406.815765 
	C515.580017,399.830444 525.913513,388.950562 532.542542,386.825226 
	C551.343445,380.797455 563.155823,393.845978 567.409851,406.121765 
	C572.550842,420.957336 560.650940,442.428772 543.962158,441.192108 
	C539.697998,440.876129 535.267395,441.973877 530.940979,439.396118 
M539.077942,404.424683 
	C537.747620,399.824585 534.906006,397.871185 529.928467,398.116791 
	C524.793640,398.370178 525.302185,402.653961 523.977905,405.480316 
	C522.648132,408.318390 525.633301,414.124329 528.256409,414.748627 
	C535.783081,416.539917 539.801147,413.059937 539.077942,404.424683 
z"/>
<path fill="#000000" opacity="1.000000" stroke="none" 
	d="
M453.612366,452.672485 
	C456.541718,451.440491 458.862061,449.876923 461.865234,449.782074 
	C466.276642,449.642761 468.335083,451.785767 468.601562,455.931000 
	C469.069061,463.202393 461.735413,468.322815 455.247223,465.315155 
	C454.499207,464.968384 453.737122,464.489288 452.949921,464.417236 
	C449.037140,464.059357 445.963715,462.508118 446.067596,458.168304 
	C446.172302,453.793060 449.919281,453.367310 453.612366,452.672485 
z"/>
</svg>